<svg t="1763881366968" class="icon" viewBox="0 0 1024 1024" version="1.1" xmlns="http://www.w3.org/2000/svg" p-id="2207" width="200" height="200"><path d="M312.621067 324.146565c0-110.949928 89.446171-201.164602 199.372793-201.164602s199.372793 90.214674 199.372793 201.164602-89.446171 201.164602-199.372793 201.164602S312.621067 435.097516 312.621067 324.146565M833.275167 324.146565c0-178.73987-144.128585-324.146565-321.279261-324.146565S190.7146 145.407718 190.7146 324.146565c0 157.695578 112.230084 289.432948 260.35161 318.259484l0 84.377736-97.53643 0c-33.638121 0-60.927651 27.494191-60.927651 61.439304 0 33.996279 27.28953 61.542658 60.927651 61.542658l97.53643 0 0 112.741737c0 33.945113 27.28953 61.491493 60.927651 61.491493s60.927651-27.54638 60.927651-61.491493L572.921511 849.765747l97.53643 0c33.638121 0 60.927651-27.54638 60.927651-61.542658 0-33.945113-27.28953-61.439304-60.927651-61.439304l-97.53643 0 0-84.377736C721.043037 613.580536 833.275167 481.843166 833.275167 324.146565" p-id="2208" fill="#d4237a"></path></svg>