<svg t="1763881278241" class="icon" viewBox="0 0 1024 1024" version="1.1" xmlns="http://www.w3.org/2000/svg" p-id="1735" width="200" height="200"><path d="M795.187 176.916h-112.52c-17.673 0-32-14.327-32-32 0-17.673 14.327-32 32-32h192c17.673 0 32 14.327 32 32v192c0 17.673-14.327 32-32 32-17.673 0-32-14.327-32-32v-116.97l-105.871 105.87c52.703 61.538 84.537 141.477 84.537 228.85 0 194.405-157.595 352-352 352-194.404 0-352-157.595-352-352 0-194.404 157.596-352 352-352 83.984 0 161.099 29.413 221.605 78.498l104.249-104.248z m-325.854 665.75c159.058 0 288-128.941 288-288 0-159.057-128.942-288-288-288s-288 128.943-288 288c0 159.059 128.942 288 288 288z" fill="#34B8FC" p-id="1736"></path></svg>