<svg xmlns="http://www.w3.org/2000/svg" width="28" height="27" fill="none" viewBox="0 0 28 27"><path fill="#f4f6fa" d="M14 .167c7.363 0 13.332 5.969 13.333 13.333S21.363 26.833 14 26.833.666 20.863.666 13.5 6.636.166 14 .166m0 1.6C7.52 1.766 2.265 7.02 2.265 13.5S7.52 25.233 14 25.233s11.733-5.253 11.733-11.734S20.48 1.766 13.999 1.766m1.543 4.19a10.63 10.63 0 0 1 3.124 7.542c0 2.946-1.194 5.613-3.125 7.544L14.41 19.91a9.03 9.03 0 0 0 2.656-6.412c0-2.438-.966-4.72-2.656-6.41zm-2.64 2.64a6.9 6.9 0 0 1 2.03 4.903 6.9 6.9 0 0 1-2.03 4.903L11.77 17.27a5.3 5.3 0 0 0 1.563-3.772 5.3 5.3 0 0 0-1.563-3.77zm-2.64 2.64c.578.579.937 1.379.937 2.262a3.2 3.2 0 0 1-.938 2.263L8 13.5z"/></svg>