<?xml version="1.0" standalone="no"?><!DOCTYPE svg PUBLIC "-//W3C//DTD SVG 1.1//EN" "http://www.w3.org/Graphics/SVG/1.1/DTD/svg11.dtd"><svg t="1762278271448" class="icon" viewBox="0 0 1024 1024" version="1.1" xmlns="http://www.w3.org/2000/svg" p-id="49438" xmlns:xlink="http://www.w3.org/1999/xlink" width="200" height="200"><path d="M332.8 511.8976a25.6 25.6 0 0 1 25.6-25.6h128V358.4a25.6 25.6 0 0 1 51.2 0v128H665.6a25.6 25.6 0 1 1 0 51.2h-128V665.6a25.6 25.6 0 0 1-51.2 0v-128.0512L358.4 537.4976a25.6 25.6 0 0 1-25.6-25.6z" fill="#ffffff" p-id="49439"></path><path d="M938.6496 511.9488c0 212.0704-191.0272 384-426.7008 384a466.944 466.944 0 0 1-160.8192-28.2112l-200.192 53.4016a42.6496 42.6496 0 0 1-52.9408-49.2544l34.9696-183.3984a351.9488 351.9488 0 0 1-47.6672-176.5376c0-212.0704 191.0272-384 426.6496-384 235.6736 0 426.7008 171.9296 426.7008 384z m-751.872 167.424l-35.9424 188.7744 202.752-54.0672 15.1552 5.5808a415.744 415.744 0 0 0 143.2064 25.088c212.5824 0 375.5008-153.9584 375.5008-332.8s-162.9184-332.8-375.5008-332.8c-212.5312 0-375.4496 153.9584-375.4496 332.8 0 54.272 14.6432 105.472 40.8064 150.9376l9.472 16.4864z" fill="#ffffff" p-id="49440"></path></svg>