<?xml version="1.0" standalone="no"?><!DOCTYPE svg PUBLIC "-//W3C//DTD SVG 1.1//EN" "http://www.w3.org/Graphics/SVG/1.1/DTD/svg11.dtd"><svg t="1762279393022" class="icon" viewBox="0 0 1024 1024" version="1.1" xmlns="http://www.w3.org/2000/svg" p-id="58497" xmlns:xlink="http://www.w3.org/1999/xlink" width="200" height="200"><path d="M621.8 545.2c81.8-52.2 115.1-155.4 79.3-245.8S570.6 156.8 475.4 175.1c-95.2 18.3-164 101.9-163.9 199.2 0.1 68.8 34.6 133 92 170.8-114.6 45.6-190 156.7-190.1 280.4 0 14.9 12 27 26.9 27 14.9 0 26.9-12.1 26.9-27-3-89.7 43-173.9 120-219.7 77-45.7 172.7-45.7 249.7 0s123 130 120 219.7c0 14.9 12 27 26.9 27 14.9 0 26.9-12.1 26.9-27-0.3-123.2-74.9-234.1-188.9-280.3z m-109.1-20.8c-60.7 0.6-115.7-35.5-139.3-91.5-23.6-56-11.3-120.8 31.4-164.1 42.6-43.3 107.1-56.4 163.1-33.3 56.1 23.1 92.7 77.9 92.7 138.8 0.3 82.4-65.9 149.5-147.9 150.1z m0 0" p-id="58498" fill="#ffffff"></path><path d="M112.7 724.8c-13.6 0.1-25.1-10.6-26.4-24.6-7.1-89.6 29.6-160.3 98.8-191.1-36.2-32.3-53.6-81.7-46-130.5 14.8-80.7 89.8-134.1 168-119.6 6.7 1 12.7 4.6 16.9 10.1 5.8 8.9 6 20.4 0.6 29.5-5.4 9.1-15.4 14.1-25.7 12.8-50.1-10-98.6 23.6-108.6 75.4-6.3 51.3 28.4 98.3 77.9 105.7h4.8c6.9 0 13.6 2.9 18.5 7.9 4.9 5.1 7.6 12 7.7 19.1 0 7.2-2.8 14.2-7.7 19.3-5 5.1-11.7 8-18.7 8h-8.5c-36-0.8-70.7 13.6-96.2 39.9-24 30.6-34.5 70.2-29.1 109.2 0.5 7.1-1.6 14.2-6.1 19.7-4.6 5.4-11 8.8-18 9.3l-2.2-0.1zM911.1 724.8H909c-7-0.6-13.4-4-18-9.6-4.4-5.5-6.6-12.5-6.1-19.7 5.6-39-4.9-78.6-28.8-109.2-25.3-26.8-60.2-41.5-96.4-40.7h-8.5c-7 0-13.7-2.9-18.7-8s-7.7-12.1-7.7-19.3c0-7.2 2.8-14.2 7.7-19.3 5-5.1 11.7-8 18.7-8h5.8c48.9-8.1 82.9-54.6 77.1-105.4-10.1-51.6-58.5-85.2-108.6-75.4-14.2 2.1-27.4-7.8-29.9-22.4-1.1-7 0.6-14.1 4.5-19.9 4.5-5.2 10.7-8.4 17.4-9 78.5-14.8 153.9 38.8 168.6 119.9 7.4 49.1-10.5 98.7-47.3 130.8 69.2 30.8 105.7 101.6 98.8 191.1-1.6 13.7-12.8 24-26.2 24l-0.3 0.1z" p-id="58499" fill="#ffffff"></path></svg>