<?xml version="1.0" standalone="no"?><!DOCTYPE svg PUBLIC "-//W3C//DTD SVG 1.1//EN" "http://www.w3.org/Graphics/SVG/1.1/DTD/svg11.dtd"><svg t="1762275203421" class="icon" viewBox="0 0 1024 1024" version="1.1" xmlns="http://www.w3.org/2000/svg" p-id="8796" xmlns:xlink="http://www.w3.org/1999/xlink" width="200" height="200"><path d="M1010.68 946.39L777.85 713.56q45.17-56.76 71.24-127.42 26.06-70.66 26.06-148.28 0-91.51-33.59-170.28-34.75-79.92-94.41-139.58-59.66-59.66-139.58-94.41Q528.8 0 437.29 0 346.93 0 267 33.59 188.24 68.34 128.58 128q-59.66 59.66-94.41 139.58Q0.58 346.35 0.58 437.86q0 90.36 33.59 170.28 34.75 79.93 94.41 139.01 59.66 59.08 138.42 93.83 79.93 33.59 170.29 33.59 78.76 0 148.84-25.49 70.09-25.49 126.85-70.66l232.83 232.83q6.95 6.95 15.06 9.85 8.11 2.89 17.37 2.89 8.11 0 16.8-2.89 8.69-2.89 15.64-9.85 12.74-13.9 12.74-32.43 0-18.54-12.74-32.44zM576.29 765.68q-32.43 13.9-67.18 20.85-34.75 6.95-71.81 6.95-35.91 0-70.67-6.95-34.75-6.95-67.19-20.85-32.44-13.9-60.82-33.01-28.38-19.11-52.7-43.44-24.33-24.33-43.44-52.71-19.11-28.38-33.01-60.81-13.9-32.43-20.85-67.19-6.95-34.75-6.95-70.66 0-37.06 6.95-71.81t20.85-67.19q13.9-31.28 33.01-59.66 19.11-28.38 43.44-53.86 24.32-24.33 52.7-43.44 28.38-19.11 60.82-31.85 32.43-13.91 67.19-20.86 34.75-6.95 70.67-6.95 37.06 0 71.81 6.95t67.18 20.86q31.28 12.74 59.66 31.85 28.38 19.11 53.86 43.44 24.33 25.48 43.44 53.86t31.85 59.66q13.9 32.43 20.85 67.19 6.95 34.75 6.95 71.81 0 35.91-6.95 70.66t-20.85 67.19q-12.74 32.43-31.85 60.81-19.11 28.38-43.44 52.71-25.48 24.33-53.86 43.44t-59.66 33.01z" fill="#2c2c2c" p-id="8797"></path></svg>