<svg xmlns="http://www.w3.org/2000/svg" width="14" height="10" fill="none" viewBox="0 0 14 10"><path fill="#f4f6fa" d="M13.75 5.901a.45.45 0 0 1-.45.45h-.9v.9a.45.45 0 1 1-.9 0v-.9h-.9a.45.45 0 1 1 0-.9h.9v-.9a.45.45 0 1 1 .9 0v.9h.9a.45.45 0 0 1 .45.45m-3.255 3.31a.45.45 0 1 1-.69.58C8.673 8.443 7.117 7.7 5.425 7.7c-1.693 0-3.249.742-4.38 2.09a.45.45 0 1 1-.69-.58c.841-1 1.886-1.71 3.048-2.09a3.825 3.825 0 1 1 4.044 0c1.162.38 2.207 1.09 3.048 2.09M5.425 6.8a2.925 2.925 0 1 0 0-5.85 2.925 2.925 0 0 0 0 5.85"/></svg>