<?xml version="1.0" standalone="no"?><!DOCTYPE svg PUBLIC "-//W3C//DTD SVG 1.1//EN" "http://www.w3.org/Graphics/SVG/1.1/DTD/svg11.dtd"><svg t="1761881486657" class="icon" viewBox="0 0 1024 1024" version="1.1" xmlns="http://www.w3.org/2000/svg" p-id="4669" xmlns:xlink="http://www.w3.org/1999/xlink" width="200" height="200"><path d="M960.64 499.2c-28.8-91.52-116.48-150.4-223.36-150.4h-16a345.216 345.216 0 0 0-283.52-224c-140.8-16.64-278.4 56.96-343.68 182.4a346.24 346.24 0 0 0 47.36 386.56c15.36 17.28 42.24 19.2 60.16 3.84 17.28-15.36 19.2-42.24 3.84-60.16a260.672 260.672 0 0 1-35.84-290.56c49.28-94.08 152.96-149.76 258.56-136.96a259.84 259.84 0 0 1 220.8 192.64c5.12 18.56 21.76 32 40.96 32h47.36c68.48 0 124.16 35.84 142.08 91.52 19.2 60.8-2.56 126.08-55.04 163.2a42.88 42.88 0 0 0-10.24 59.52 42.112 42.112 0 0 0 58.88 10.24c83.2-59.52 118.4-163.2 87.68-259.84z" fill="#ffffff" p-id="4670"></path><path d="M611.84 698.88l-56.96 56.96V490.88c0-23.68-19.2-42.24-42.88-42.24-23.68 0-42.24 19.2-42.24 42.88v264.96l-57.6-57.6a42.496 42.496 0 1 0-60.16 60.16l129.92 129.92c3.2 3.2 6.4 4.48 9.6 6.4 1.28 0.64 2.56 1.92 3.84 2.56 5.12 1.92 10.88 3.2 16.64 3.2 1.92 0 3.2-0.64 5.12-1.28 3.84-0.64 7.68-0.64 10.88-2.56 5.76-1.92 10.24-5.76 14.72-9.6l129.28-129.28c16.64-16.64 16.64-43.52 0-60.16s-43.52-16-60.16 0.64z" fill="#ffffff" p-id="4671"></path></svg>