<?xml version="1.0" standalone="no"?><!DOCTYPE svg PUBLIC "-//W3C//DTD SVG 1.1//EN" "http://www.w3.org/Graphics/SVG/1.1/DTD/svg11.dtd"><svg t="1761914055490" class="icon" viewBox="0 0 1024 1024" version="1.1" xmlns="http://www.w3.org/2000/svg" p-id="10588" xmlns:xlink="http://www.w3.org/1999/xlink" width="200" height="200"><path d="M768 154.352941c14.546824 0 26.352941 11.806118 26.352941 26.352941v38.580706c0 116.736-54.964706 226.635294-148.359529 296.658824l7.80047-6.02353v373.519059a26.352941 26.352941 0 0 1-23.04 26.172235l-3.312941 0.180706h-245.940706a26.352941 26.352941 0 0 1-26.352941-26.352941l-0.030118-373.519059-0.602352-0.451764A370.838588 370.838588 0 0 1 214.738824 229.888l-0.150589-10.601412V180.705882c0-14.546824 11.806118-26.352941 26.352941-26.352941h527.058824zM504.470588 576.150588a26.352941 26.352941 0 0 0-26.142117 23.04l-0.210824 3.312941v70.264471a26.352941 26.352941 0 0 0 52.495059 3.312941l0.210823-3.312941v-70.264471a26.352941 26.352941 0 0 0-26.352941-26.352941z m231.30353-298.827294H273.167059c3.463529 18.040471 8.432941 35.659294 14.848 52.705882h432.911059c6.384941-17.046588 11.384471-34.665412 14.848-52.705882z" fill="#ffffff" p-id="10589"></path></svg>