<svg width="14" height="14" viewBox="0 0 14 14" fill="none" xmlns="http://www.w3.org/2000/svg">
<path d="M9.59615 5.95932C9.59615 6.09704 9.54145 6.22912 9.44408 6.3265C9.3467 6.42389 9.21463 6.4786 9.07692 6.4786H4.92308C4.78537 6.4786 4.6533 6.42389 4.55593 6.3265C4.45855 6.22912 4.40385 6.09704 4.40385 5.95932C4.40385 5.8216 4.45855 5.68951 4.55593 5.59213C4.6533 5.49475 4.78537 5.44004 4.92308 5.44004H9.07692C9.21463 5.44004 9.3467 5.49475 9.44408 5.59213C9.54145 5.68951 9.59615 5.8216 9.59615 5.95932ZM9.07692 7.51716H4.92308C4.78537 7.51716 4.6533 7.57187 4.55593 7.66925C4.45855 7.76664 4.40385 7.89872 4.40385 8.03644C4.40385 8.17416 4.45855 8.30624 4.55593 8.40363C4.6533 8.50101 4.78537 8.55572 4.92308 8.55572H9.07692C9.21463 8.55572 9.3467 8.50101 9.44408 8.40363C9.54145 8.30624 9.59615 8.17416 9.59615 8.03644C9.59615 7.89872 9.54145 7.76664 9.44408 7.66925C9.3467 7.57187 9.21463 7.51716 9.07692 7.51716ZM13.75 6.99788C13.7503 8.16336 13.4488 9.30905 12.8749 10.3234C12.3011 11.3378 11.4744 12.1864 10.4754 12.7864C9.47638 13.3865 8.33902 13.7177 7.17403 13.7478C6.00905 13.7778 4.85613 13.5057 3.8275 12.9579L1.61752 13.6946C1.43455 13.7557 1.2382 13.7645 1.05048 13.7202C0.862754 13.6759 0.691078 13.5802 0.554692 13.4438C0.418305 13.3074 0.322598 13.1357 0.278296 12.948C0.233995 12.7602 0.24285 12.5639 0.30387 12.3809L1.04053 10.1707C0.559039 9.26534 0.290109 8.26219 0.254152 7.23738C0.218196 6.21257 0.416157 5.19303 0.833011 4.25616C1.24987 3.31929 1.87466 2.48971 2.65996 1.83038C3.44526 1.17106 4.37043 0.699315 5.36525 0.450968C6.36006 0.202621 7.39838 0.184194 8.40138 0.397088C9.40438 0.609981 10.3457 1.0486 11.1539 1.67965C11.9621 2.3107 12.6159 3.11759 13.0657 4.03908C13.5156 4.96057 13.7496 5.97244 13.75 6.99788ZM12.7115 6.99788C12.7113 6.12167 12.5095 5.25727 12.1218 4.47154C11.734 3.68582 11.1707 2.99983 10.4755 2.46666C9.78023 1.93348 8.97165 1.56742 8.11231 1.39678C7.25296 1.22614 6.36588 1.2555 5.51969 1.4826C4.67351 1.70969 3.89091 2.12843 3.23243 2.70641C2.57396 3.28439 2.05726 4.00612 1.72232 4.81577C1.38738 5.62542 1.24317 6.50128 1.30085 7.37558C1.35854 8.24989 1.61657 9.0992 2.05498 9.85782C2.09177 9.9215 2.11462 9.99228 2.122 10.0655C2.12939 10.1387 2.12114 10.2126 2.09781 10.2823L1.28846 12.71L3.71587 11.9005C3.76874 11.8825 3.82421 11.8733 3.88007 11.8733C3.97126 11.8734 4.06081 11.8976 4.13969 11.9434C5.00797 12.4458 5.99325 12.7106 6.99639 12.7113C7.99953 12.7119 8.98515 12.4483 9.85406 11.947C10.723 11.4457 11.4446 10.7243 11.9462 9.85552C12.4478 8.98672 12.7118 8.00112 12.7115 6.99788Z" fill="#F4F6FA"/>
</svg>
